<svg width="358" height="495" viewBox="0 0 358 495" fill="none" xmlns="http://www.w3.org/2000/svg">
<path d="M252.994 327.351C253.937 327.351 254.881 326.988 255.534 326.262C256.985 324.811 256.985 322.561 255.534 321.11L219.247 284.823C217.795 283.371 215.546 283.371 214.094 284.823C212.643 286.274 212.643 288.524 214.094 289.975L250.381 326.262C251.107 326.988 252.05 327.351 252.994 327.351Z" fill="#F2726C"/>
<path d="M252.997 327.352C255.029 327.352 256.626 325.755 256.626 323.723C256.626 318.135 261.126 313.635 266.714 313.635C272.302 313.635 276.802 318.135 276.802 323.723C276.802 325.755 278.398 327.352 280.43 327.352C282.462 327.352 284.059 325.755 284.059 323.723C284.059 314.143 276.294 306.378 266.714 306.378C257.134 306.378 249.369 314.143 249.369 323.723C249.369 325.755 250.965 327.352 252.997 327.352Z" fill="#F2726C"/>
<path d="M119.025 302.896V465.534C119.025 472.647 121.565 479.251 125.847 484.331C127.879 486.799 130.347 488.976 133.105 490.645C135.354 492.024 137.749 493.113 140.29 493.838C142.612 494.492 145.007 494.927 147.547 495C147.837 495 148.2 495 148.49 495C164.674 495 177.956 481.718 177.956 465.534V302.896C177.956 286.639 164.674 273.43 148.49 273.43C140.362 273.43 133.032 276.769 127.662 282.067C122.364 287.437 119.025 294.767 119.025 302.896Z" fill="#222433"/>
<g opacity="0.5">
<path opacity="0.5" d="M125.852 303.983V484.33C127.885 486.798 130.352 488.975 133.11 490.644V303.983H125.852Z" fill="url(#paint0_linear_5983_2)"/>
</g>
<path opacity="0.5" d="M140.287 303.984V493.838C142.61 494.491 145.005 494.926 147.545 494.999V303.984H140.287Z" fill="url(#paint1_linear_5983_2)"/>
<path d="M148.488 480.483C167.575 480.483 183.033 464.952 183.033 445.938C183.033 443.906 181.437 442.309 179.404 442.309C177.372 442.309 175.776 443.906 175.776 445.938C175.776 461.033 163.511 473.226 148.488 473.226C133.392 473.226 121.2 460.961 121.2 445.938C121.2 443.906 119.603 442.309 117.571 442.309C115.539 442.309 113.943 443.906 113.943 445.938C113.943 464.952 129.473 480.483 148.488 480.483Z" fill="#32535D"/>
<path d="M148.488 458.567C167.575 458.567 183.033 443.036 183.033 424.022C183.033 421.99 181.437 420.393 179.404 420.393C177.372 420.393 175.776 421.99 175.776 424.022C175.776 439.117 163.511 451.31 148.488 451.31C133.392 451.31 121.2 439.045 121.2 424.022C121.2 421.99 119.603 420.393 117.571 420.393C115.539 420.393 113.943 421.99 113.943 424.022C113.943 443.036 129.473 458.567 148.488 458.567Z" fill="#32535D"/>
<path d="M119.026 322.925C191.164 322.925 293.567 250.206 303.945 161.81C314.758 69.9314 248.788 0.623047 176.214 0.623047V133.942C176.214 162.318 170.989 190.477 160.611 216.894L119.026 322.925Z" fill="#222433"/>
<path d="M248.207 234.749C245.522 240.772 240.95 245.417 235.434 248.102C233.765 242.224 234.055 235.692 236.741 229.668C239.426 223.645 243.998 219 249.514 216.315C251.183 222.193 250.82 228.652 248.207 234.749Z" fill="url(#paint2_linear_5983_2)"/>
<path d="M213.588 234.749C210.903 240.772 206.331 245.417 200.815 248.102C199.146 242.224 199.436 235.692 202.122 229.668C204.807 223.645 209.379 219 214.895 216.315C216.564 222.193 216.274 228.652 213.588 234.749Z" fill="url(#paint3_linear_5983_2)"/>
<path d="M223.603 256.522C220.917 262.545 216.345 267.19 210.829 269.875C209.16 263.997 209.451 257.465 212.136 251.442C214.821 245.418 219.393 240.773 224.909 238.088C226.578 243.966 226.288 250.426 223.603 256.522Z" fill="url(#paint4_linear_5983_2)"/>
<path d="M106.031 256.518C106.031 260.074 106.103 263.63 106.394 267.186C106.902 275.532 107.99 283.878 109.66 292.152C109.95 293.531 110.24 294.91 110.53 296.289C111.111 298.756 119.239 322.706 119.022 322.923C148.269 300.353 170.622 268.347 180.855 229.883C181.436 227.633 182.016 225.384 182.524 223.061C184.701 213.554 186.153 203.684 186.806 193.596C188.548 168.34 185.427 142.213 176.21 119.715C173.96 121.457 171.711 123.272 169.461 125.159C143.189 147.149 121.417 175.888 111.909 211.377C109.732 219.505 108.136 227.778 107.192 236.125C106.394 242.947 106.031 249.696 106.031 256.518Z" fill="#25386D"/>
<path d="M106.031 256.518C106.031 260.074 106.103 263.63 106.394 267.186C106.902 275.532 107.99 283.878 109.66 292.152C109.95 293.531 110.24 294.91 110.53 296.289C111.111 298.756 119.239 322.706 119.022 322.923C148.269 300.353 170.622 268.347 180.855 229.883C181.436 227.633 182.016 225.384 182.524 223.061C184.701 213.554 186.153 203.684 186.806 193.596C188.548 168.34 185.427 142.213 176.21 119.715C173.96 121.457 171.711 123.272 169.461 125.159C143.189 147.149 121.417 175.888 111.909 211.377C109.732 219.505 108.136 227.778 107.192 236.125C106.394 242.947 106.031 249.696 106.031 256.518Z" fill="#222433" fill-opacity="0.3"/>
<path d="M107.193 236.127C134.481 213.774 155.31 182.93 165.107 146.207C165.688 143.957 166.269 141.708 166.777 139.385C167.865 134.74 168.736 129.951 169.462 125.088C143.19 147.078 121.418 175.817 111.911 211.306C109.733 219.507 108.137 227.781 107.193 236.127Z" fill="url(#paint5_linear_5983_2)"/>
<path d="M285.729 128.717C285.729 161.085 261.198 187.284 230.935 187.284C200.672 187.284 176.141 161.085 176.141 128.717V11.5096C237.176 11.5096 285.729 63.9808 285.729 128.717Z" fill="#F26C74"/>
<path d="M176.212 11.5096V100.486C176.212 125.088 193.121 144.974 214.023 144.974C234.924 144.974 251.834 125.016 251.834 100.486C251.834 52.9495 220.482 14.1223 180.421 11.5822C178.969 11.5822 177.591 11.5096 176.212 11.5096Z" fill="#F8EA8C"/>
<path d="M11.9794 45.9094C25.6959 46.8528 36.582 57.9567 37.2352 71.6732C48.4116 68.1897 60.2412 66.3753 72.5063 66.3753H176.215V0.623047H90.2144C79.9814 0.623047 70.1113 2.29225 60.967 5.48552C40.2108 12.5978 22.7929 27.1126 11.9794 45.9094Z" fill="#F8EA8C"/>
<path d="M30.6309 90.8328H176.215V66.3752H72.5788C60.3138 66.3752 48.4842 68.1896 37.3078 71.6732C37.3078 72.1086 37.3078 72.5441 37.3078 73.0521C37.3078 79.8015 34.7677 86.1154 30.6309 90.8328Z" fill="#F26A6C"/>
<path d="M157.052 0.623047H176.212V66.3753H157.052V0.623047Z" fill="url(#paint6_linear_5983_2)"/>
<path d="M157.052 66.3752H176.212V90.9053H157.052V66.3752Z" fill="black"/>
<path d="M0.00477982 90.8335C11.0361 82.4149 23.664 75.8106 37.2354 71.6013C36.5822 57.8122 25.6961 46.7809 11.9795 45.8375C4.35923 59.1185 0.00477982 74.5043 0.00477982 90.8335Z" fill="#25316D"/>
<path d="M0.00477982 90.8342H30.5585C33.6066 87.3507 35.7839 83.0688 36.7273 78.3515C37.0902 76.6097 37.2354 74.8679 37.2354 72.981C37.2354 72.5455 37.2354 72.1101 37.2354 71.6021C23.664 75.8839 11.1086 82.4156 0.00477982 90.8342Z" fill="#222433"/>
<path opacity="0.7" d="M122.435 66.3753H157.053V0.623047H118.299C120.113 8.17077 121.782 16.8071 122.726 26.3869C124.25 41.7726 123.669 55.344 122.435 66.3753Z" fill="url(#paint7_linear_5983_2)"/>
<path d="M200.452 327.352C201.396 327.352 202.339 326.989 202.992 326.263C204.444 324.812 204.444 322.562 202.992 321.11L178.825 296.943C177.374 295.492 175.124 295.492 173.672 296.943C172.221 298.395 172.221 300.644 173.672 302.096L197.84 326.263C198.565 326.989 199.509 327.352 200.452 327.352Z" fill="#F2726C"/>
<path d="M200.451 327.353C202.483 327.353 204.08 325.756 204.08 323.724C204.08 318.136 208.58 313.636 214.168 313.636C219.756 313.636 224.256 318.136 224.256 323.724C224.256 325.756 225.852 327.353 227.884 327.353C229.917 327.353 231.513 325.756 231.513 323.724C231.513 314.144 223.748 306.379 214.168 306.379C204.588 306.379 196.823 314.144 196.823 323.724C196.823 325.756 198.419 327.353 200.451 327.353Z" fill="#F2726C"/>
<path d="M42.7847 331.998H351.951C354.927 331.998 357.394 329.531 357.394 326.555C357.394 323.579 354.927 321.112 351.951 321.112H42.7847C39.8092 321.112 37.3417 323.579 37.3417 326.555C37.3417 329.531 39.8092 331.998 42.7847 331.998Z" fill="#A86E58"/>
<path d="M227.812 327.353C229.844 327.353 231.44 325.757 231.44 323.725C231.44 314.145 223.675 306.379 214.095 306.379C212.063 306.379 210.466 307.976 210.466 310.008C210.466 312.04 212.063 313.637 214.095 313.637C219.683 313.637 224.183 318.136 224.183 323.725C224.183 325.757 225.852 327.353 227.812 327.353Z" fill="#F2726C"/>
<path d="M280.353 327.356C282.385 327.356 283.981 325.76 283.981 323.727C283.981 314.148 276.216 306.382 266.636 306.382C264.604 306.382 263.007 307.979 263.007 310.011C263.007 312.043 264.604 313.64 266.636 313.64C272.224 313.64 276.724 318.139 276.724 323.727C276.724 325.76 278.393 327.356 280.353 327.356Z" fill="#F2726C"/>
<defs>
<linearGradient id="paint0_linear_5983_2" x1="129.467" y1="485.917" x2="129.467" y2="324.218" gradientUnits="userSpaceOnUse">
<stop stop-color="#24C667"/>
<stop offset="1" stop-color="#244C6B"/>
</linearGradient>
<linearGradient id="paint1_linear_5983_2" x1="143.916" y1="531.15" x2="143.916" y2="350.93" gradientUnits="userSpaceOnUse">
<stop stop-color="#24C667"/>
<stop offset="1" stop-color="#244C6B"/>
</linearGradient>
<linearGradient id="paint2_linear_5983_2" x1="232.716" y1="254.123" x2="246.01" y2="224.104" gradientUnits="userSpaceOnUse">
<stop offset="0.5313" stop-color="#244C6B"/>
<stop offset="1" stop-color="#24236D"/>
</linearGradient>
<linearGradient id="paint3_linear_5983_2" x1="198.105" y1="254.123" x2="211.399" y2="224.104" gradientUnits="userSpaceOnUse">
<stop offset="0.5313" stop-color="#244C6B"/>
<stop offset="1" stop-color="#24236D"/>
</linearGradient>
<linearGradient id="paint4_linear_5983_2" x1="208.175" y1="275.879" x2="221.469" y2="245.861" gradientUnits="userSpaceOnUse">
<stop offset="0.5313" stop-color="#244C6B"/>
<stop offset="1" stop-color="#24236D"/>
</linearGradient>
<linearGradient id="paint5_linear_5983_2" x1="179.176" y1="94.3874" x2="122.568" y2="212.683" gradientUnits="userSpaceOnUse">
<stop stop-color="#7675FD"/>
<stop offset="1" stop-color="#244C6B"/>
</linearGradient>
<linearGradient id="paint6_linear_5983_2" x1="166.621" y1="63.4239" x2="166.621" y2="3.90529" gradientUnits="userSpaceOnUse">
<stop stop-color="#24236D"/>
<stop offset="1" stop-color="#244C6B"/>
</linearGradient>
<linearGradient id="paint7_linear_5983_2" x1="137.647" y1="64.8754" x2="137.647" y2="9.0651" gradientUnits="userSpaceOnUse">
<stop stop-color="#EE2A7B"/>
<stop offset="1" stop-color="#F15665"/>
</linearGradient>
</defs>
</svg>
